<svg width="166" height="130" viewBox="0 0 166 130" fill="none" xmlns="http://www.w3.org/2000/svg">
<ellipse cx="83" cy="95.5" rx="83" ry="34.5" fill="url(#paint0_linear_482_2222)"/>
<rect x="46" y="8" width="64" height="73" rx="4" fill="url(#paint1_linear_482_2222)"/>
<g filter="url(#filter0_i_482_2222)">
<rect x="51" y="13" width="54" height="63" rx="4" fill="#C4CCDE"/>
</g>
<path d="M51.25 17C51.25 14.9289 52.9289 13.25 55 13.25H101C103.071 13.25 104.75 14.9289 104.75 17V50C104.75 64.2213 93.2213 75.75 79 75.75H55C52.9289 75.75 51.25 74.0711 51.25 72V17Z" fill="url(#paint2_linear_482_2222)" stroke="white" stroke-width="0.5"/>
<g filter="url(#filter1_f_482_2222)">
<path d="M85.4441 62.9589C86.1555 60.8258 88.3567 59.2606 90.5838 58.9505C93.6835 58.5188 98.2911 57.1123 103.5 53C103.5 65.1503 93.6503 75 81.5 75H77C81.6532 72.2081 84.1893 66.7217 85.4441 62.9589Z" fill="#505D78" fill-opacity="0.13"/>
</g>
<g filter="url(#filter2_i_482_2222)">
<path d="M86.4441 63.9589C87.1555 61.8258 89.3567 60.2606 91.5838 59.9505C94.6835 59.5188 99.2911 58.1123 104.5 54C104.5 66.1503 94.6503 76 82.5 76H78C82.6532 73.2081 85.1893 67.7217 86.4441 63.9589Z" fill="url(#paint3_linear_482_2222)"/>
</g>
<path d="M86.6813 64.038C87.3573 62.0109 89.4675 60.4976 91.6183 60.1981C94.6777 59.772 99.1671 58.4111 104.244 54.516C103.97 66.2899 94.3397 75.75 82.5 75.75H78.8494C83.1254 72.8005 85.4881 67.6158 86.6813 64.038Z" stroke="url(#paint4_linear_482_2222)" stroke-width="0.5"/>
<path fill-rule="evenodd" clip-rule="evenodd" d="M83 5C83 2.23858 80.7614 0 78 0C75.2386 0 73 2.23858 73 5H66C64.8954 5 64 5.89543 64 7V15H92V7C92 5.89543 91.1046 5 90 5H83Z" fill="#CFD8E4"/>
<rect x="57" y="24" width="5" height="5" rx="1" fill="#D9E0EC"/>
<rect x="57" y="37" width="5" height="5" rx="1" fill="#D9E0EC"/>
<rect x="57" y="50" width="5" height="5" rx="1" fill="#D9E0EC"/>
<rect x="66" y="24" width="31" height="5" rx="1" fill="#D9E0EC"/>
<rect x="66" y="37" width="31" height="5" rx="1" fill="#D9E0EC"/>
<rect x="66" y="50" width="19" height="5" rx="1" fill="#D9E0EC"/>
<path d="M126 53L116 65L130.5 60L126 53Z" fill="url(#paint5_linear_482_2222)"/>
<path d="M139.267 72.1056L117 67.1617L137.5 80.2373L139.267 72.1056Z" fill="url(#paint6_linear_482_2222)"/>
<defs>
<filter id="filter0_i_482_2222" x="50" y="12" width="55" height="64" filterUnits="userSpaceOnUse" color-interpolation-filters="sRGB">
<feFlood flood-opacity="0" result="BackgroundImageFix"/>
<feBlend mode="normal" in="SourceGraphic" in2="BackgroundImageFix" result="shape"/>
<feColorMatrix in="SourceAlpha" type="matrix" values="0 0 0 0 0 0 0 0 0 0 0 0 0 0 0 0 0 0 127 0" result="hardAlpha"/>
<feOffset dx="-1" dy="-1"/>
<feGaussianBlur stdDeviation="0.5"/>
<feComposite in2="hardAlpha" operator="arithmetic" k2="-1" k3="1"/>
<feColorMatrix type="matrix" values="0 0 0 0 0 0 0 0 0 0 0 0 0 0 0 0 0 0 0.06 0"/>
<feBlend mode="normal" in2="shape" result="effect1_innerShadow_482_2222"/>
</filter>
<filter id="filter1_f_482_2222" x="73" y="49" width="34.5" height="30" filterUnits="userSpaceOnUse" color-interpolation-filters="sRGB">
<feFlood flood-opacity="0" result="BackgroundImageFix"/>
<feBlend mode="normal" in="SourceGraphic" in2="BackgroundImageFix" result="shape"/>
<feGaussianBlur stdDeviation="2" result="effect1_foregroundBlur_482_2222"/>
</filter>
<filter id="filter2_i_482_2222" x="78" y="53" width="26.5" height="23" filterUnits="userSpaceOnUse" color-interpolation-filters="sRGB">
<feFlood flood-opacity="0" result="BackgroundImageFix"/>
<feBlend mode="normal" in="SourceGraphic" in2="BackgroundImageFix" result="shape"/>
<feColorMatrix in="SourceAlpha" type="matrix" values="0 0 0 0 0 0 0 0 0 0 0 0 0 0 0 0 0 0 127 0" result="hardAlpha"/>
<feOffset dy="-1"/>
<feGaussianBlur stdDeviation="0.5"/>
<feComposite in2="hardAlpha" operator="arithmetic" k2="-1" k3="1"/>
<feColorMatrix type="matrix" values="0 0 0 0 1 0 0 0 0 1 0 0 0 0 1 0 0 0 0.28 0"/>
<feBlend mode="normal" in2="shape" result="effect1_innerShadow_482_2222"/>
</filter>
<linearGradient id="paint0_linear_482_2222" x1="83" y1="61" x2="83" y2="130" gradientUnits="userSpaceOnUse">
<stop stop-color="#D9E0EC" stop-opacity="0.38"/>
<stop offset="0.435577" stop-color="#D9E0EC" stop-opacity="0"/>
</linearGradient>
<linearGradient id="paint1_linear_482_2222" x1="78" y1="8" x2="78" y2="81" gradientUnits="userSpaceOnUse">
<stop stop-color="#D9E0EC"/>
<stop offset="1" stop-color="#D2DBE8"/>
</linearGradient>
<linearGradient id="paint2_linear_482_2222" x1="52.3388" y1="14.6293" x2="105.399" y2="64.5229" gradientUnits="userSpaceOnUse">
<stop offset="0.430562" stop-color="white"/>
<stop offset="0.890551" stop-color="#EDEEF5"/>
</linearGradient>
<linearGradient id="paint3_linear_482_2222" x1="89" y1="61" x2="98" y2="72.5" gradientUnits="userSpaceOnUse">
<stop stop-color="white"/>
<stop offset="0.75" stop-color="#CFD6E8"/>
</linearGradient>
<linearGradient id="paint4_linear_482_2222" x1="87.5" y1="60" x2="96.5" y2="70.5" gradientUnits="userSpaceOnUse">
<stop offset="0.290036" stop-color="white" stop-opacity="0"/>
<stop offset="1" stop-color="white"/>
</linearGradient>
<linearGradient id="paint5_linear_482_2222" x1="127" y1="58.5" x2="116" y2="65" gradientUnits="userSpaceOnUse">
<stop stop-color="#D9E0EC"/>
<stop offset="1" stop-color="#BECCE0"/>
</linearGradient>
<linearGradient id="paint6_linear_482_2222" x1="129.374" y1="70.3439" x2="116.999" y2="67.1619" gradientUnits="userSpaceOnUse">
<stop stop-color="#D9E0EC"/>
<stop offset="1" stop-color="#BECCE0"/>
</linearGradient>
</defs>
</svg>
