<svg width="16" height="16" viewBox="0 0 16 16" fill="none" xmlns="http://www.w3.org/2000/svg">
<path d="M1.28906 2.49542C1.28906 2.21928 1.51292 1.99542 1.78906 1.99542H14.2105C14.4867 1.99542 14.7105 2.21928 14.7105 2.49542V2.9867C14.7105 3.26284 14.4867 3.4867 14.2105 3.4867H1.78906C1.51292 3.4867 1.28906 3.26284 1.28906 2.9867V2.49542ZM1.28906 13.68C1.28906 13.4038 1.51292 13.18 1.78906 13.18H14.2105C14.4867 13.18 14.7105 13.4038 14.7105 13.68V14.1712C14.7105 14.4474 14.4867 14.6712 14.2105 14.6712H1.78906C1.51292 14.6712 1.28906 14.4474 1.28906 14.1712V13.68ZM7.25416 9.95179C7.25416 9.67565 7.47801 9.45179 7.75416 9.45179H14.2105C14.4867 9.45179 14.7105 9.67565 14.7105 9.95179V10.4431C14.7105 10.7192 14.4867 10.9431 14.2105 10.9431H7.75416C7.47801 10.9431 7.25416 10.7192 7.25416 10.4431V9.95179ZM7.25416 6.22361C7.25416 5.94746 7.47801 5.72361 7.75416 5.72361H14.2105C14.4867 5.72361 14.7105 5.94746 14.7105 6.22361V6.71488C14.7105 6.99102 14.4867 7.21488 14.2105 7.21488H7.75416C7.47801 7.21488 7.25416 6.99102 7.25416 6.71488V6.22361ZM1.71911 8.70962C1.49144 8.51042 1.49144 8.15625 1.71911 7.95705L3.44236 6.4492C3.76565 6.16632 4.27161 6.39591 4.27161 6.82549V9.84118C4.27161 10.2708 3.76565 10.5003 3.44236 10.2175L1.71911 8.70962Z" fill="#5B6180"/>
</svg>
