<svg width="16" height="16" viewBox="0 0 16 16" fill="none" xmlns="http://www.w3.org/2000/svg">
<g clip-path="url(#clip0_368_9569)">
<path d="M15.5 1.50007H9V1.18601C9 0.556322 8.42344 0.0828847 7.80625 0.20476L0.80625 1.5907C0.3375 1.68288 0 2.09382 0 2.57195V13.4266C0 13.9048 0.339062 14.3173 0.809375 14.4079L7.80937 15.7688C8.42656 15.8891 9 15.4157 9 14.7876V14.5001H15.5C15.7766 14.5001 16 14.2766 16 14.0001V2.00007C16 1.72351 15.7766 1.50007 15.5 1.50007ZM2.10781 10.3516L3.28594 8.13132C3.32344 8.06101 3.325 7.97664 3.29063 7.90476L2.20469 5.67039C2.16875 5.59539 2.21406 5.50632 2.29531 5.49226L3.00156 5.36882C3.11563 5.34851 3.22813 5.40945 3.275 5.5157L3.88281 6.93132C3.94062 7.06882 3.99063 7.22039 4.03281 7.38914H4.04531C4.08906 7.23289 4.14375 7.06726 4.20937 6.8907L5.02344 5.12195C5.05781 5.04695 5.12656 4.99382 5.20781 4.97976L6.25625 4.79539C6.35938 4.77664 6.4375 4.88601 6.3875 4.9782L4.79531 7.87664C4.75469 7.95164 4.75469 8.04382 4.79531 8.11882L6.43281 11.0719C6.48438 11.1641 6.40469 11.2735 6.30156 11.2563L5.16563 11.0563C5.08437 11.0423 5.01562 10.9891 4.98125 10.9141L4.09844 8.98132C4.06719 8.91101 4.03438 8.78601 4 8.60632H3.9875C3.97031 8.69382 3.93281 8.81726 3.875 8.97976L3.13594 10.5173C3.0875 10.6188 2.97813 10.6751 2.86719 10.6548L2.19531 10.5376C2.1125 10.5188 2.06719 10.4266 2.10781 10.3516ZM15 13.3751C15 13.4438 14.9438 13.5001 14.875 13.5001H9V12.1251C9 12.0563 9.05625 12.0001 9.125 12.0001H10.625C10.6938 12.0001 10.75 11.9438 10.75 11.8751V11.1251C10.75 11.0563 10.6938 11.0001 10.625 11.0001H9.125C9.05625 11.0001 9 10.9438 9 10.8751V10.3751C9 10.3063 9.05625 10.2501 9.125 10.2501H10.625C10.6938 10.2501 10.75 10.1938 10.75 10.1251V9.37507C10.75 9.30632 10.6938 9.25007 10.625 9.25007H9.125C9.05625 9.25007 9 9.19382 9 9.12507V8.62507C9 8.55632 9.05625 8.50007 9.125 8.50007H10.625C10.6938 8.50007 10.75 8.44382 10.75 8.37507V7.62507C10.75 7.55632 10.6938 7.50007 10.625 7.50007H9.125C9.05625 7.50007 9 7.44382 9 7.37507V6.87507C9 6.80632 9.05625 6.75007 9.125 6.75007H10.625C10.6938 6.75007 10.75 6.69382 10.75 6.62507V5.87507C10.75 5.80632 10.6938 5.75007 10.625 5.75007H9.125C9.05625 5.75007 9 5.69382 9 5.62507V5.12507C9 5.05632 9.05625 5.00007 9.125 5.00007H10.625C10.6938 5.00007 10.75 4.94382 10.75 4.87507V4.12507C10.75 4.05632 10.6938 4.00007 10.625 4.00007H9.125C9.05625 4.00007 9 3.94382 9 3.87507V2.50007H14.875C14.9438 2.50007 15 2.55632 15 2.62507V13.3751Z" fill="#177BF8"/>
<path d="M11.875 4C11.8062 4 11.75 4.05625 11.75 4.125V4.875C11.75 4.94375 11.8062 5 11.875 5H13.875C13.9437 5 14 4.94375 14 4.875V4.125C14 4.05625 13.9437 4 13.875 4H11.875ZM11.875 5.75C11.8062 5.75 11.75 5.80625 11.75 5.875V6.625C11.75 6.69375 11.8062 6.75 11.875 6.75H13.875C13.9437 6.75 14 6.69375 14 6.625V5.875C14 5.80625 13.9437 5.75 13.875 5.75H11.875ZM11.875 7.5C11.8062 7.5 11.75 7.55625 11.75 7.625V8.375C11.75 8.44375 11.8062 8.5 11.875 8.5H13.875C13.9437 8.5 14 8.44375 14 8.375V7.625C14 7.55625 13.9437 7.5 13.875 7.5H11.875ZM11.875 9.25C11.8062 9.25 11.75 9.30625 11.75 9.375V10.125C11.75 10.1937 11.8062 10.25 11.875 10.25H13.875C13.9437 10.25 14 10.1937 14 10.125V9.375C14 9.30625 13.9437 9.25 13.875 9.25H11.875ZM11.875 11C11.8062 11 11.75 11.0563 11.75 11.125V11.875C11.75 11.9437 11.8062 12 11.875 12H13.875C13.9437 12 14 11.9437 14 11.875V11.125C14 11.0563 13.9437 11 13.875 11H11.875Z" fill="#177BF8"/>
</g>
<defs>
<clipPath id="clip0_368_9569">
<rect width="16" height="16" fill="white"/>
</clipPath>
</defs>
</svg>
