<svg width="394" height="476" viewBox="0 0 394 476" fill="none" xmlns="http://www.w3.org/2000/svg">
<path d="M386.751 332.611C386.751 332.611 386.751 332.611 386.751 332.621C379.851 356.261 368.721 378.091 354.231 397.171C354.211 397.201 354.181 397.231 354.151 397.261C332.481 424.161 258.19 424.351 213.87 412.391C165.75 399.401 130.97 369.031 128.48 366.801C147.56 381.601 171.46 390.401 197.38 390.401C259.86 390.401 310.521 339.301 310.521 276.261C310.521 257.521 306.04 239.831 298.1 224.221C297.7 223.441 298.341 222.531 299.211 222.671C334.181 228.221 404.651 261.471 386.741 332.611H386.751Z" fill="#1652D8"/>
<path d="M393.451 253.132C393.591 254.342 391.931 254.802 391.411 253.702C374.821 217.922 345.601 207.332 310.531 199.442C283.881 193.452 266.431 184.752 258.721 180.332C257.081 179.262 255.411 178.232 253.711 177.242C253.691 177.242 253.691 177.242 253.681 177.222C198.231 143.462 197.391 85.2722 197.391 85.2722V1.07221C197.391 0.122213 198.531 -0.357787 199.211 0.312213L330.091 128.872H330.111L339.831 138.432C368.881 168.972 388.381 208.832 393.451 253.132Z" fill="#EA0100"/>
<path d="M354.15 397.264C318.08 444.754 261.28 475.374 197.39 475.374C88.37 475.374 0 386.234 0 276.264C0 222.824 20.8701 174.304 54.8301 138.554L64.78 128.784L64.8101 128.754L150.35 44.7336C151.11 43.9836 152.39 44.6936 152.14 45.7336C150.72 51.8036 148.48 64.9336 149.95 82.9536C151.66 104.264 158.58 132.414 178.19 163.784C190.51 183.484 207.84 204.464 232.04 225.824C234.94 228.384 237.94 230.944 241.03 233.514C251.68 244.564 258.23 259.644 258.23 276.284C258.23 310.194 230.98 337.674 197.38 337.674C183.08 337.674 169.93 332.704 159.54 324.374C158.61 323.624 159.41 322.154 160.55 322.524C162.62 323.194 164.83 323.564 167.13 323.564C178.95 323.564 188.53 313.894 188.53 301.974C188.53 294.654 184.92 288.184 179.4 284.284C179.4 284.284 179.4 284.284 179.38 284.274C164.89 272.734 152.67 261.254 142.38 249.984C127.97 234.194 117.37 218.804 109.67 204.184C93.77 223.844 84.23 248.934 84.23 276.284C84.23 313.104 101.51 345.844 128.33 366.704C128.33 366.704 128.38 366.754 128.47 366.824C130.96 369.054 165.74 399.424 213.86 412.414C258.17 424.374 332.47 424.184 354.14 397.284L354.15 397.264Z" fill="#3DC8F9"/>
</svg>
