<svg width="16" height="16" viewBox="0 0 16 16" fill="none" xmlns="http://www.w3.org/2000/svg">
<path d="M1.02148 3.04718C1.02148 1.94261 1.91692 1.04718 3.02148 1.04718H5.27205C6.37662 1.04718 7.27205 1.94261 7.27205 3.04718V6.29774C7.27205 6.85003 6.82433 7.29774 6.27205 7.29774H3.02148C1.91691 7.29774 1.02148 6.40231 1.02148 5.29774V3.04718Z" fill="white"/>
<path d="M1.02148 12.9528C1.02148 14.0574 1.91692 14.9528 3.02148 14.9528H5.27205C6.37662 14.9528 7.27205 14.0574 7.27205 12.9528V9.70226C7.27205 9.14997 6.82433 8.70226 6.27205 8.70226H3.02148C1.91691 8.70226 1.02148 9.59769 1.02148 10.7023V12.9528Z" fill="white"/>
<path d="M14.979 3.04718C14.979 1.94261 14.0836 1.04718 12.979 1.04718H10.7284C9.62387 1.04718 8.72844 1.94261 8.72844 3.04718V6.29774C8.72844 6.85003 9.17616 7.29774 9.72844 7.29774H12.979C14.0836 7.29774 14.979 6.40231 14.979 5.29774V3.04718Z" fill="#91C2FF"/>
<path d="M14.979 12.9528C14.979 14.0574 14.0836 14.9528 12.979 14.9528H10.7284C9.62387 14.9528 8.72844 14.0574 8.72844 12.9528V9.70226C8.72844 9.14997 9.17616 8.70226 9.72844 8.70226H12.979C14.0836 8.70226 14.979 9.59769 14.979 10.7023V12.9528Z" fill="white"/>
</svg>
