<?xml version="1.0" standalone="no"?><!DOCTYPE svg PUBLIC "-//W3C//DTD SVG 1.1//EN" "http://www.w3.org/Graphics/SVG/1.1/DTD/svg11.dtd"><svg t="1735005136909" class="icon" viewBox="0 0 1024 1024" version="1.1" xmlns="http://www.w3.org/2000/svg" p-id="7370" xmlns:xlink="http://www.w3.org/1999/xlink" width="32" height="32"><path d="M282.869 845.724c-8.811 0-15.979-7.479-15.979-16.673V474.798c0-16.981-13.786-30.796-30.731-30.796-8.239 0-15.98 3.256-21.799 9.167l-3.313 3.376c-0.214 0.217-0.594 0.532-1.204 0.532-0.607 0-0.986-0.313-1.218-0.55l-99.912-101.602c-0.944-0.961-0.944-2.714 0.002-3.677L272.522 184.67c3.807-3.873 8.836-6.003 14.164-6.003h49.256c5.852 0 11.281 2.475 14.896 6.789 33.539 40.001 116.591 58.634 162.163 58.634 45.575 0 128.63-18.633 162.158-58.629 3.619-4.32 9.049-6.794 14.9-6.794h49.255c5.328 0 10.359 2.132 14.168 6.004L917.284 351.25c0.946 0.962 0.946 2.713 0.001 3.674l-99.911 101.603c-0.232 0.237-0.611 0.55-1.216 0.55s-0.983-0.313-1.215-0.55l-3.302-3.355c-5.819-5.914-13.563-9.17-21.803-9.17-16.945 0-30.731 13.815-30.731 30.796v354.254c0 9.193-7.167 16.673-15.978 16.673h-460.26z" fill="#FFFFFF" p-id="7371"></path><path d="M737.097 203.667l146.932 149.42-70.168 71.355c-7.404-3.563-15.566-5.442-24.022-5.442-30.73 0-55.731 25.03-55.731 55.797v345.926H291.89V474.798c0-30.766-25.001-55.797-55.731-55.797-8.456 0-16.618 1.879-24.022 5.442l-70.168-71.355 146.935-149.42h44.629C373.544 248.772 462.034 269.09 513 269.09c50.963 0 139.444-20.32 179.465-65.423h44.632m2.215-50h-49.254c-13.054 0-25.593 5.628-34.06 15.734-25.282 30.16-97.511 49.689-142.998 49.689-45.489 0-117.713-19.53-143-49.689-8.466-10.106-21.003-15.734-34.059-15.734h-49.256c-11.997 0-23.505 4.844-31.989 13.474L90.888 333.722c-10.517 10.697-10.517 28.035 0 38.732l99.911 101.601c5.258 5.348 12.151 8.021 19.044 8.021s13.786-2.674 19.046-8.021l3.287-3.35c1.159-1.177 2.584-1.705 3.982-1.705 2.925 0 5.731 2.308 5.731 5.797v354.254c0 23.013 18.349 41.672 40.979 41.672H743.13c22.63 0 40.978-18.66 40.978-41.672V474.798c0-3.489 2.806-5.797 5.731-5.797 1.398 0 2.823 0.527 3.982 1.705l3.295 3.35c5.258 5.348 12.15 8.021 19.041 8.021s13.783-2.674 19.041-8.021l99.911-101.601c10.52-10.697 10.52-28.035 0-38.732l-163.806-166.58c-8.486-8.631-19.99-13.476-31.991-13.476z" fill="#1A1A1A" p-id="7372"></path><path d="M356.273 354.986h191.216c17.602 0 31.869 14.268 31.869 31.868v254.955c0 17.601-14.268 31.871-31.869 31.871H356.273c-17.601 0-31.869-14.27-31.869-31.871V386.854c-0.001-17.6 14.267-31.868 31.869-31.868z" fill="#FFCD36" p-id="7373"></path></svg>